<svg width="174" height="252" viewBox="0 0 174 252" fill="none" xmlns="http://www.w3.org/2000/svg">
<g clip-path="url(#clip0_19_784)">
<rect x="0.0689697" width="173.069" height="252" rx="13" fill="white"/>
<path d="M16.5747 4.46953V8.36462H15.8059V5.35587L14.8821 5.64954V5.04351L16.492 4.46953H16.5747ZM17.9016 7.99354C17.9016 7.87963 17.9407 7.78441 18.019 7.70788C18.0991 7.63135 18.205 7.59308 18.3367 7.59308C18.4684 7.59308 18.5734 7.63135 18.6518 7.70788C18.7318 7.78441 18.7719 7.87963 18.7719 7.99354C18.7719 8.10744 18.7318 8.20266 18.6518 8.27919C18.5734 8.35573 18.4684 8.39399 18.3367 8.39399C18.205 8.39399 18.0991 8.35573 18.019 8.27919C17.9407 8.20266 17.9016 8.10744 17.9016 7.99354ZM17.9016 5.79103C17.9016 5.67712 17.9407 5.5819 18.019 5.50537C18.0991 5.42884 18.205 5.39058 18.3367 5.39058C18.4684 5.39058 18.5734 5.42884 18.6518 5.50537C18.7318 5.5819 18.7719 5.67712 18.7719 5.79103C18.7719 5.90494 18.7318 6.00016 18.6518 6.07669C18.5734 6.15322 18.4684 6.19149 18.3367 6.19149C18.205 6.19149 18.0991 6.15322 18.019 6.07669C17.9407 6.00016 17.9016 5.90494 17.9016 5.79103ZM21.9996 6.07936V6.75212C21.9996 7.04401 21.9684 7.29585 21.9061 7.50765C21.8438 7.71767 21.7539 7.89031 21.6365 8.02557C21.5208 8.15906 21.3829 8.25784 21.2227 8.32191C21.0625 8.38598 20.8845 8.41802 20.6887 8.41802C20.5321 8.41802 20.3862 8.39844 20.2509 8.35928C20.1156 8.31835 19.9937 8.25517 19.8852 8.16974C19.7784 8.08431 19.6858 7.97663 19.6075 7.8467C19.531 7.715 19.4722 7.55837 19.4313 7.37683C19.3904 7.19529 19.3699 6.98706 19.3699 6.75212V6.07936C19.3699 5.78747 19.401 5.53741 19.4633 5.32917C19.5274 5.11916 19.6173 4.94741 19.733 4.81392C19.8504 4.68044 19.9893 4.58255 20.1495 4.52025C20.3096 4.45618 20.4876 4.42414 20.6834 4.42414C20.84 4.42414 20.9851 4.44461 21.1186 4.48555C21.2538 4.5247 21.3757 4.58611 21.4843 4.66976C21.5929 4.75341 21.6854 4.86109 21.762 4.99279C21.8385 5.12272 21.8972 5.27845 21.9382 5.45999C21.9791 5.63975 21.9996 5.84621 21.9996 6.07936ZM21.228 6.85357V5.97524C21.228 5.83464 21.22 5.71183 21.204 5.60682C21.1897 5.50181 21.1675 5.41282 21.1372 5.33985C21.107 5.2651 21.0696 5.20459 21.0251 5.15831C20.9806 5.11204 20.9299 5.07822 20.8729 5.05686C20.816 5.03551 20.7528 5.02483 20.6834 5.02483C20.5962 5.02483 20.5188 5.04174 20.4511 5.07555C20.3853 5.10937 20.3292 5.16365 20.2829 5.2384C20.2367 5.31138 20.2011 5.40926 20.1762 5.53207C20.153 5.6531 20.1414 5.80082 20.1414 5.97524V6.85357C20.1414 6.99418 20.1486 7.11787 20.1628 7.22466C20.1788 7.33145 20.202 7.42311 20.2322 7.49964C20.2643 7.57439 20.3016 7.6358 20.3443 7.68385C20.3888 7.73012 20.4396 7.76394 20.4965 7.7853C20.5553 7.80666 20.6193 7.81734 20.6887 7.81734C20.7742 7.81734 20.8498 7.80043 20.9157 7.76661C20.9833 7.73101 21.0402 7.67584 21.0865 7.60109C21.1346 7.52456 21.1702 7.42489 21.1933 7.30208C21.2164 7.17928 21.228 7.02977 21.228 6.85357ZM23.3104 6.08737H23.7215C23.8532 6.08737 23.9618 6.06512 24.0472 6.02063C24.1327 5.97435 24.1958 5.91028 24.2368 5.82841C24.2795 5.74476 24.3008 5.64776 24.3008 5.53741C24.3008 5.43774 24.2813 5.34964 24.2421 5.27311C24.2047 5.1948 24.1469 5.13428 24.0686 5.09157C23.9903 5.04707 23.8915 5.02483 23.7722 5.02483C23.6779 5.02483 23.5907 5.04351 23.5106 5.08089C23.4305 5.11827 23.3664 5.17077 23.3184 5.2384C23.2703 5.30604 23.2463 5.38791 23.2463 5.48402H22.4748C22.4748 5.27044 22.5317 5.08445 22.6456 4.92605C22.7613 4.76765 22.9162 4.64395 23.1102 4.55496C23.3042 4.46597 23.5177 4.42147 23.7509 4.42147C24.0143 4.42147 24.2448 4.46419 24.4423 4.54962C24.6399 4.63327 24.7938 4.75697 24.9042 4.92071C25.0145 5.08445 25.0697 5.28735 25.0697 5.5294C25.0697 5.65221 25.0412 5.77145 24.9843 5.88714C24.9273 6.00105 24.8455 6.10428 24.7387 6.19683C24.6337 6.2876 24.5055 6.36057 24.3542 6.41574C24.203 6.46914 24.033 6.49583 23.8443 6.49583H23.3104V6.08737ZM23.3104 6.67203V6.27425H23.8443C24.0561 6.27425 24.2421 6.29827 24.4023 6.34633C24.5625 6.39438 24.6968 6.4638 24.8054 6.55457C24.914 6.64356 24.9959 6.74945 25.051 6.87226C25.1062 6.99329 25.1338 7.12766 25.1338 7.27539C25.1338 7.45693 25.0991 7.61889 25.0297 7.76127C24.9603 7.90188 24.8624 8.02112 24.736 8.11901C24.6114 8.2169 24.4655 8.29165 24.2982 8.34327C24.1309 8.3931 23.9484 8.41802 23.7509 8.41802C23.5871 8.41802 23.4261 8.39577 23.2677 8.35128C23.111 8.305 22.9687 8.23648 22.8405 8.14571C22.7141 8.05316 22.6127 7.93747 22.5362 7.79865C22.4614 7.65804 22.424 7.49163 22.424 7.29941H23.1956C23.1956 7.39908 23.2205 7.48807 23.2703 7.56638C23.3202 7.64469 23.3887 7.7061 23.4759 7.75059C23.5649 7.79509 23.6637 7.81734 23.7722 7.81734C23.895 7.81734 24.0001 7.79509 24.0873 7.75059C24.1763 7.70432 24.2439 7.64024 24.2902 7.55837C24.3382 7.47472 24.3622 7.37772 24.3622 7.26738C24.3622 7.12499 24.3364 7.01109 24.2848 6.92565C24.2332 6.83844 24.1593 6.77437 24.0632 6.73344C23.9671 6.6925 23.8532 6.67203 23.7215 6.67203H23.3104Z" fill="#666666"/>
<g clip-path="url(#clip1_19_784)">
<path d="M149.163 8.75961L152.009 4.91515C151.901 4.82683 150.804 3.85529 149.16 3.85529C147.516 3.85529 146.42 4.82683 146.311 4.91515L149.158 8.75715L149.16 8.76206L149.163 8.75961Z" fill="#666666"/>
</g>
<g clip-path="url(#clip2_19_784)">
<path d="M158.343 5.32738V3.85535L153.436 8.76212H157.362V5.32738H158.343Z" fill="black" fill-opacity="0.3"/>
<path d="M156.38 8.76212V5.81805L153.436 8.76212H156.38ZM157.852 5.81805V7.78076H158.343V5.81805H157.852ZM157.852 8.76212H158.343V8.27144H157.852V8.76212Z" fill="#666666"/>
</g>
<g clip-path="url(#clip3_19_784)">
<path d="M163.518 4.34602H163.11V3.85535H162.128V4.34602H161.72C161.538 4.34602 161.392 4.492 161.392 4.67355V8.43582C161.392 8.61615 161.538 8.76335 161.72 8.76335H163.519C163.7 8.76335 163.847 8.61737 163.847 8.43582V4.67355C163.846 4.492 163.7 4.34602 163.518 4.34602ZM162.374 8.27144V6.92208H161.883L162.864 5.08204V6.4314H163.355L162.374 8.27144Z" fill="#666666"/>
</g>
<rect x="0.0689697" y="12" width="173" height="92" fill="#252525"/>
<g filter="url(#filter0_d_19_784)">
<circle cx="89.569" cy="103.5" r="24.5" fill="white"/>
</g>
<path d="M72.5036 91.1282C72.2774 90.6157 72.5095 90.0169 73.022 89.7908C73.5345 89.5646 74.1333 89.7968 74.3595 90.3092C74.5856 90.8217 74.3536 91.4205 73.8411 91.6466C73.3286 91.8728 72.7298 91.6407 72.5036 91.1282Z" fill="white" stroke="#080E17" stroke-width="0.319017" stroke-miterlimit="10" stroke-linecap="round" stroke-linejoin="round"/>
<path d="M73.8411 91.6466C73.8411 91.6466 74.3926 93.7812 75.5893 95.4035C76.7859 97.0257 78.7555 98.3828 78.7555 98.3828" stroke="#080E17" stroke-width="0.319017" stroke-miterlimit="10" stroke-linecap="round" stroke-linejoin="round"/>
<path d="M107.702 91.1282C107.928 90.6157 107.696 90.0169 107.183 89.7908C106.671 89.5646 106.072 89.7968 105.846 90.3092C105.62 90.8217 105.852 91.4205 106.364 91.6466C106.877 91.8728 107.476 91.6407 107.702 91.1282Z" fill="white" stroke="#080E17" stroke-width="0.319017" stroke-miterlimit="10" stroke-linecap="round" stroke-linejoin="round"/>
<path d="M106.364 91.6466C106.364 91.6466 105.813 93.7812 104.616 95.4035C103.42 97.0257 101.45 98.3828 101.45 98.3828" stroke="#080E17" stroke-width="0.319017" stroke-miterlimit="10" stroke-linecap="round" stroke-linejoin="round"/>
<path d="M85.297 113.069L80.2581 121.661" stroke="#080E17" stroke-width="0.319017" stroke-miterlimit="10" stroke-linecap="round" stroke-linejoin="round"/>
<path d="M80.7805 120.77L80.2581 121.661C80.2581 121.661 78.0797 121.01 78.0054 120.536C77.9309 120.062 80.7805 120.77 80.7805 120.77Z" fill="white" stroke="#080E17" stroke-width="0.319017" stroke-miterlimit="10" stroke-linecap="round" stroke-linejoin="round"/>
<path d="M98.2212 112.562L101.405 122" stroke="#080E17" stroke-width="0.319017" stroke-miterlimit="10" stroke-linecap="round" stroke-linejoin="round"/>
<path d="M101.074 121.022L101.404 122C101.404 122 103.67 121.807 103.839 121.358C104.008 120.909 101.074 121.022 101.074 121.022Z" fill="white" stroke="#080E17" stroke-width="0.319017" stroke-miterlimit="10" stroke-linecap="round" stroke-linejoin="round"/>
<path d="M81.2134 115.955C88.4238 116.473 95.6344 116.364 102.845 115.628C102.017 106.761 102.017 97.8947 102.845 89.0281C95.6344 88.292 88.4238 88.1829 81.2134 88.7013C81.7961 97.7856 81.7961 106.87 81.2134 115.955Z" fill="#FFD817" stroke="#080E17" stroke-width="0.319017" stroke-miterlimit="10" stroke-linecap="round" stroke-linejoin="round"/>
<path d="M77.456 115.628C78.7085 115.756 79.9609 115.865 81.2134 115.955C81.7961 106.87 81.7961 97.7855 81.2134 88.701C79.9609 88.791 78.7085 88.9001 77.456 89.0278C78.2837 97.8946 78.2837 106.761 77.456 115.628Z" fill="#DDA825" stroke="#080E17" stroke-width="0.319017" stroke-miterlimit="10" stroke-linecap="round" stroke-linejoin="round"/>
<path d="M77.7578 92.7943C78.9804 92.7025 80.2032 92.6245 81.4259 92.5599C81.3667 91.2737 81.2959 89.9874 81.2134 88.7011C79.9609 88.7911 78.7085 88.9002 77.456 89.0279C77.5731 90.2834 77.6737 91.5388 77.7578 92.7943Z" fill="#EBAD2A" stroke="#080E17" stroke-width="0.319017" stroke-miterlimit="10" stroke-linecap="round" stroke-linejoin="round"/>
<path d="M77.456 115.628C78.7085 115.756 79.9609 115.865 81.2134 115.955C81.2959 114.668 81.3667 113.382 81.4259 112.096C80.2032 112.031 78.9804 111.953 77.7578 111.861C77.6737 113.117 77.5731 114.372 77.456 115.628Z" fill="#EBAD2A" stroke="#080E17" stroke-width="0.319017" stroke-miterlimit="10" stroke-linecap="round" stroke-linejoin="round"/>
<path d="M84.3785 101.566C89.4179 101.552 94.4573 101.556 99.4966 101.579C100.319 101.581 100.987 100.876 101 100.003C101.038 97.3704 101.14 94.7374 101.306 92.1044C101.363 91.232 100.723 90.4654 99.8667 90.4039C94.6278 90.0357 89.3889 89.9652 84.1501 90.1927C83.2939 90.2306 82.6365 90.9937 82.6751 91.8856C82.7866 94.575 82.8551 97.2643 82.8803 99.9538C82.889 100.846 83.5566 101.567 84.3785 101.566Z" fill="#FFF6C9" stroke="#080E17" stroke-width="0.319017" stroke-miterlimit="10" stroke-linecap="round" stroke-linejoin="round"/>
<path d="M83.4926 104.506C89.1239 104.559 94.7552 104.545 100.387 104.464C100.724 104.459 100.993 104.164 100.99 103.806C100.987 103.448 100.712 103.159 100.375 103.161C94.7501 103.193 89.125 103.198 83.5 103.178C83.1631 103.176 82.8892 103.472 82.887 103.838C82.8847 104.204 83.1553 104.503 83.4926 104.506Z" fill="#FFF6C9" stroke="#080E17" stroke-width="0.319017" stroke-miterlimit="10" stroke-linecap="round" stroke-linejoin="round"/>
<path d="M83.4596 107.127C89.1188 107.243 94.778 107.212 100.437 107.033C100.776 107.022 101.043 106.722 101.033 106.364C101.024 106.006 100.745 105.723 100.407 105.73C94.7643 105.859 89.1218 105.882 83.4794 105.798C83.1415 105.793 82.8637 106.085 82.8576 106.451C82.8517 106.817 83.1205 107.12 83.4596 107.127Z" fill="#FFF6C9" stroke="#080E17" stroke-width="0.319017" stroke-miterlimit="10" stroke-linecap="round" stroke-linejoin="round"/>
<path d="M79.2792 110.804C79.0805 110.792 78.8815 110.78 78.6828 110.768C78.9865 105.188 78.9891 99.6086 78.6905 94.029C78.889 94.0171 79.0878 94.0053 79.2864 93.9938C79.5695 99.5972 79.567 105.201 79.2792 110.804Z" fill="white" stroke="#080E17" stroke-width="0.319017" stroke-miterlimit="10" stroke-linecap="round" stroke-linejoin="round"/>
<path d="M80.5261 110.873C80.3273 110.862 80.1284 110.852 79.9297 110.841C80.2004 105.213 80.2026 99.5852 79.9365 93.9576C80.1351 93.9467 80.3339 93.9364 80.5325 93.9261C80.7832 99.575 80.781 105.224 80.5261 110.873Z" fill="white" stroke="#080E17" stroke-width="0.319017" stroke-miterlimit="10" stroke-linecap="round" stroke-linejoin="round"/>
<path d="M95.7848 96.3643C95.2542 96.3643 94.8241 95.9341 94.8241 95.4035C94.8241 94.8729 95.2542 94.4428 95.7848 94.4428C96.3154 94.4428 96.7455 94.8729 96.7455 95.4035C96.7455 95.9341 96.3154 96.3643 95.7848 96.3643Z" fill="#080E17" stroke="#080E17" stroke-width="0.319017" stroke-miterlimit="10"/>
<path d="M88.4964 96.3643C87.9658 96.3643 87.5357 95.9341 87.5357 95.4035C87.5357 94.8729 87.9658 94.4428 88.4964 94.4428C89.027 94.4428 89.4571 94.8729 89.4571 95.4035C89.4571 95.9341 89.027 96.3643 88.4964 96.3643Z" fill="#080E17" stroke="#080E17" stroke-width="0.319017" stroke-miterlimit="10"/>
<path d="M98.4641 97.1981C98.0597 97.1981 97.7318 96.8703 97.7318 96.4658C97.7318 96.0614 98.0597 95.7335 98.4641 95.7335C98.8686 95.7335 99.1964 96.0614 99.1964 96.4658C99.1964 96.8703 98.8686 97.1981 98.4641 97.1981Z" fill="#FFBA11" stroke="#080E17" stroke-width="0.319017" stroke-miterlimit="10" stroke-linecap="round"/>
<path d="M85.0848 96.3643C85.0848 96.7688 85.4128 97.0966 85.8171 97.0966C86.2216 97.0966 86.5494 96.7686 86.5494 96.3643C86.5494 95.9597 86.2215 95.632 85.8171 95.632C85.4128 95.632 85.0848 95.9599 85.0848 96.3643Z" fill="#FFBA11" stroke="#080E17" stroke-width="0.319017" stroke-miterlimit="10" stroke-linecap="round"/>
<path d="M97.4972 93.7307C97.2407 93.3683 96.8543 93.109 96.4353 92.9625C96.0163 92.8161 95.5652 92.7772 95.1219 92.8007" stroke="#080E17" stroke-width="0.319017" stroke-miterlimit="10" stroke-linecap="round"/>
<path d="M86.7839 93.7307C87.0404 93.3683 87.4267 93.109 87.8457 92.9625C88.2648 92.8161 88.7158 92.7772 89.1591 92.8007" stroke="#080E17" stroke-width="0.319017" stroke-miterlimit="10" stroke-linecap="round"/>
<path d="M92.2796 96.1573C92.2796 96.1573 93.2574 95.5006 93.7478 95.8997C94.2381 96.2988 93.3946 97.7685 92.1957 97.7649C90.9969 97.7614 90.1492 96.6751 90.477 96.0436C90.8048 95.412 92.2796 96.1573 92.2796 96.1573Z" fill="#080E17"/>
<mask id="mask0_19_784" style="mask-type:luminance" maskUnits="userSpaceOnUse" x="90" y="95" width="4" height="3">
<path d="M92.2796 96.1573C92.2796 96.1573 93.2574 95.5006 93.7478 95.8997C94.2381 96.2988 93.3946 97.7685 92.1957 97.7649C90.9969 97.7614 90.1492 96.6751 90.477 96.0436C90.8048 95.412 92.2796 96.1573 92.2796 96.1573Z" fill="white"/>
</mask>
<g mask="url(#mask0_19_784)">
<path d="M93.002 97.9411C92.7065 97.3393 92.1464 96.8732 91.5009 96.692C90.8554 96.5108 90.1346 96.6172 89.5689 96.9772C89.7104 97.3648 90.0733 97.746 90.4118 97.9823C90.759 98.2247 91.1403 98.4366 91.5586 98.5021C91.9769 98.5677 92.7113 98.2491 93.002 97.9411Z" fill="#FF5900" stroke="#080E17" stroke-width="0.319017" stroke-miterlimit="10" stroke-linecap="round" stroke-linejoin="round"/>
</g>
<path d="M92.2796 96.1573C92.2796 96.1573 93.2574 95.5006 93.7478 95.8997C94.2381 96.2988 93.3946 97.7685 92.1957 97.7649C90.9969 97.7614 90.1492 96.6751 90.477 96.0436C90.8048 95.412 92.2796 96.1573 92.2796 96.1573Z" stroke="#080E17" stroke-width="0.319017" stroke-miterlimit="10" stroke-linecap="round" stroke-linejoin="round"/>
<path d="M73.2496 99.1044C75.0948 99.1046 76.7744 97.9234 77.7258 96.5877C78.8638 94.9898 79.2944 93.0744 79.6379 91.2496L79.6588 91.1383C79.8204 90.2777 79.9731 89.4647 80.3441 88.7763C80.6374 88.2317 81.1997 87.6278 81.8977 87.5661C82.1797 87.5415 82.5753 87.7077 82.8602 87.9711C83.0588 88.1545 83.1809 88.3674 83.1794 88.5265L84.743 88.5418C84.7489 87.9286 84.4572 87.3182 83.9217 86.8229C83.3095 86.2568 82.481 85.944 81.76 86.0086C80.6416 86.1075 79.5976 86.8649 78.9674 88.0347C78.481 88.9372 78.2985 89.9096 78.122 90.8499L78.1012 90.9604C77.7899 92.6144 77.4061 94.3412 76.4521 95.6807C75.6667 96.7834 74.1403 97.8151 72.6464 97.473L72.9995 98.383L72.2978 98.9974C72.618 99.0703 72.9363 99.1044 73.2496 99.1044Z" fill="#FF5900" stroke="#080E17" stroke-width="0.319017" stroke-miterlimit="10"/>
<path d="M107.789 97.2887H107.788C107.788 96.4783 107.131 95.8211 106.321 95.8211V95.8206C107.131 95.8206 107.788 95.1636 107.788 94.353H107.789C107.789 95.1634 108.446 95.8206 109.256 95.8206V95.8211C108.446 95.8211 107.789 96.4783 107.789 97.2887Z" fill="#EBAD2A" stroke="#080036" stroke-width="0.319017" stroke-miterlimit="10" stroke-linecap="round" stroke-linejoin="round"/>
<path d="M104.583 89.2602H104.582C104.582 88.4498 103.925 87.7926 103.114 87.7926V87.7921C103.925 87.7921 104.582 87.1351 104.582 86.3245H104.583C104.583 87.1349 105.24 87.7921 106.05 87.7921V87.7926C105.24 87.7926 104.583 88.4496 104.583 89.2602Z" fill="#8F8BFD" stroke="#080036" stroke-width="0.319017" stroke-miterlimit="10" stroke-linecap="round" stroke-linejoin="round"/>
<path d="M71.5371 95.9403H71.5366C71.5366 95.1298 70.8796 94.4726 70.069 94.4726V94.4722C70.8795 94.4722 71.5366 93.8151 71.5366 93.0045H71.5371C71.5371 93.815 72.1941 94.4722 73.0048 94.4722V94.4726C72.1941 94.4726 71.5371 95.1298 71.5371 95.9403Z" fill="#8F8BFD" stroke="#080036" stroke-width="0.319017" stroke-miterlimit="10" stroke-linecap="round" stroke-linejoin="round"/>
<path d="M75.3092 88.9358H75.3087C75.3087 88.1253 74.6517 87.4681 73.8411 87.4681V87.4676C74.6515 87.4676 75.3087 86.8106 75.3087 86H75.3092C75.3092 86.8105 75.9662 87.4676 76.7768 87.4676V87.4681C75.9662 87.4681 75.3092 88.1253 75.3092 88.9358Z" fill="#EBAD2A" stroke="#080036" stroke-width="0.319017" stroke-miterlimit="10" stroke-linecap="round" stroke-linejoin="round"/>
<path d="M76.3697 148V140.328H77.6157V143.646H77.6577L80.8497 140.328H82.3057V140.37L77.6157 145.116V148H76.3697ZM81.1297 148V145.298C81.1297 144.747 80.9617 144.318 80.6257 144.01C80.2897 143.702 79.7343 143.548 78.9597 143.548L79.6877 142.638C80.2757 142.638 80.7657 142.745 81.1577 142.96C81.559 143.165 81.8623 143.464 82.0677 143.856C82.273 144.248 82.3757 144.719 82.3757 145.27V148H81.1297ZM87.4285 148.126C86.6725 148.126 86.0658 148.028 85.6085 147.832C85.1605 147.636 84.8338 147.361 84.6285 147.006C84.4325 146.651 84.3345 146.231 84.3345 145.746C84.3345 145.317 84.3951 144.976 84.5165 144.724C84.6471 144.463 84.8058 144.271 84.9925 144.15C85.1885 144.029 85.3891 143.949 85.5945 143.912V143.856C85.4078 143.8 85.2118 143.707 85.0065 143.576C84.8011 143.445 84.6285 143.263 84.4885 143.03C84.3578 142.797 84.2925 142.503 84.2925 142.148C84.2925 141.821 84.3671 141.513 84.5165 141.224C84.6658 140.935 84.9085 140.697 85.2445 140.51C85.5805 140.323 86.0238 140.23 86.5745 140.23C86.7985 140.23 87.0318 140.249 87.2745 140.286C87.5171 140.314 87.7038 140.365 87.8345 140.44L87.6105 141.406C87.5078 141.369 87.3725 141.336 87.2045 141.308C87.0458 141.271 86.8778 141.252 86.7005 141.252C86.3085 141.252 86.0191 141.345 85.8325 141.532C85.6458 141.709 85.5525 141.947 85.5525 142.246C85.5525 142.573 85.6318 142.82 85.7905 142.988C85.9585 143.156 86.1685 143.273 86.4205 143.338C86.6818 143.394 86.9525 143.422 87.2325 143.422H87.4985V144.332H87.2325C86.6725 144.332 86.2571 144.435 85.9865 144.64C85.7251 144.836 85.5945 145.167 85.5945 145.634C85.5945 145.905 85.6458 146.152 85.7485 146.376C85.8605 146.6 86.0471 146.777 86.3085 146.908C86.5791 147.039 86.9525 147.104 87.4285 147.104C87.9045 147.104 88.2731 147.039 88.5345 146.908C88.8051 146.777 88.9965 146.591 89.1085 146.348C89.2205 146.096 89.2765 145.797 89.2765 145.452V140.328H90.5225V145.368C90.5225 146.348 90.2705 147.053 89.7665 147.482C89.2718 147.911 88.4925 148.126 87.4285 148.126ZM84.5663 139.11V138.564L85.5883 138.116H90.5163V139.11H84.5663ZM95.867 148.14C94.7656 148.14 93.977 147.888 93.501 147.384C93.025 146.88 92.787 146.161 92.787 145.228V140.328H94.033V145.242C94.033 145.867 94.1823 146.334 94.481 146.642C94.7796 146.95 95.2416 147.104 95.867 147.104C96.5016 147.104 96.9683 146.95 97.267 146.642C97.575 146.334 97.729 145.867 97.729 145.242V140.328H98.975V145.228C98.975 146.161 98.7323 146.88 98.247 147.384C97.771 147.888 96.9776 148.14 95.867 148.14ZM104.19 148.126C103.434 148.126 102.828 148.028 102.37 147.832C101.922 147.636 101.596 147.361 101.39 147.006C101.194 146.651 101.096 146.231 101.096 145.746C101.096 145.317 101.157 144.976 101.278 144.724C101.409 144.463 101.568 144.271 101.754 144.15C101.95 144.029 102.151 143.949 102.356 143.912V143.856C102.17 143.8 101.974 143.707 101.768 143.576C101.563 143.445 101.39 143.263 101.25 143.03C101.12 142.797 101.054 142.503 101.054 142.148C101.054 141.821 101.129 141.513 101.278 141.224C101.428 140.935 101.67 140.697 102.006 140.51C102.342 140.323 102.786 140.23 103.336 140.23C103.56 140.23 103.794 140.249 104.036 140.286C104.279 140.314 104.466 140.365 104.596 140.44L104.372 141.406C104.27 141.369 104.134 141.336 103.966 141.308C103.808 141.271 103.64 141.252 103.462 141.252C103.07 141.252 102.781 141.345 102.594 141.532C102.408 141.709 102.314 141.947 102.314 142.246C102.314 142.573 102.394 142.82 102.552 142.988C102.72 143.156 102.93 143.273 103.182 143.338C103.444 143.394 103.714 143.422 103.994 143.422H104.26V144.332H103.994C103.434 144.332 103.019 144.435 102.748 144.64C102.487 144.836 102.356 145.167 102.356 145.634C102.356 145.905 102.408 146.152 102.51 146.376C102.622 146.6 102.809 146.777 103.07 146.908C103.341 147.039 103.714 147.104 104.19 147.104C104.666 147.104 105.035 147.039 105.296 146.908C105.567 146.777 105.758 146.591 105.87 146.348C105.982 146.096 106.038 145.797 106.038 145.452V140.328H107.284V145.368C107.284 146.348 107.032 147.053 106.528 147.482C106.034 147.911 105.254 148.126 104.19 148.126ZM101.328 139.11V138.564L102.35 138.116H107.278V139.11H101.328ZM104.212 138.564V136.982H105.248V138.564H104.212ZM106.256 138.564V136.982H107.278V138.564H106.256ZM113.245 148.14C112.647 148.14 112.129 148.023 111.691 147.79C111.261 147.547 110.967 147.211 110.809 146.782H110.753L110.683 148H109.661V140.328H110.907V144.766C110.907 145.233 110.986 145.643 111.145 145.998C111.313 146.343 111.551 146.614 111.859 146.81C112.176 146.997 112.554 147.09 112.993 147.09C113.543 147.09 113.954 146.945 114.225 146.656C114.495 146.367 114.631 145.942 114.631 145.382V140.328H115.877V145.466C115.877 146.082 115.769 146.586 115.555 146.978C115.349 147.37 115.051 147.664 114.659 147.86C114.267 148.047 113.795 148.14 113.245 148.14Z" fill="black"/>
<path fill-rule="evenodd" clip-rule="evenodd" d="M63.3268 138.085C63.1822 137.948 62.9557 137.948 62.8111 138.085C61.8027 139.04 60.4421 139.625 58.944 139.625C58.9201 139.625 58.8963 139.625 58.8726 139.625C58.7089 139.623 58.5628 139.727 58.5117 139.882C58.3054 140.51 58.194 141.18 58.194 141.875C58.194 144.846 60.226 147.342 62.9755 148.049C63.0368 148.065 63.1011 148.065 63.1624 148.049C65.9119 147.342 67.944 144.846 67.944 141.875C67.944 141.18 67.8325 140.51 67.6263 139.882C67.5751 139.727 67.429 139.623 67.2654 139.625C67.2416 139.625 67.2178 139.625 67.194 139.625C65.6958 139.625 64.3352 139.04 63.3268 138.085Z" fill="#34C432"/>
<path d="M62.5935 141.549C62.7431 141.089 63.3948 141.089 63.5445 141.549L63.611 141.754C63.678 141.96 63.8699 142.099 64.0865 142.099H64.3018C64.7861 142.099 64.9875 142.719 64.5957 143.004L64.4215 143.13C64.2463 143.258 64.173 143.483 64.2399 143.689L64.3064 143.894C64.4561 144.355 63.9289 144.738 63.537 144.453L63.3629 144.327C63.1876 144.199 62.9503 144.199 62.7751 144.327L62.601 144.453C62.2091 144.738 61.6819 144.355 61.8315 143.894L61.898 143.689C61.965 143.483 61.8917 143.258 61.7164 143.13L61.5423 143.004C61.1504 142.719 61.3518 142.099 61.8362 142.099H62.0514C62.268 142.099 62.46 141.96 62.5269 141.754L62.5935 141.549Z" fill="white"/>
<path d="M73.4586 163.06C73.3498 163.06 73.2451 163.042 73.1444 163.006C73.0437 162.97 72.9611 162.905 72.8967 162.813C72.8322 162.72 72.8 162.591 72.8 162.426V159.689H73.3377V162.36C73.3377 162.452 73.3579 162.519 73.3981 162.559C73.4384 162.599 73.5029 162.619 73.5915 162.619C73.6277 162.619 73.666 162.615 73.7063 162.607C73.7465 162.599 73.7848 162.589 73.8211 162.577L73.8936 162.97C73.817 163.006 73.7425 163.03 73.67 163.042C73.5975 163.054 73.527 163.06 73.4586 163.06ZM74.7356 163L74.1374 159.689H74.6872L74.9229 161.127C74.943 161.244 74.9631 161.395 74.9833 161.58C75.0034 161.765 75.0276 161.985 75.0558 162.239H75.0739C75.1101 162.066 75.1444 161.91 75.1766 161.774C75.2129 161.637 75.2451 161.514 75.2733 161.405C75.3055 161.292 75.3337 161.194 75.3579 161.109L75.7626 159.689H76.2037L76.6145 161.109C76.6387 161.194 76.6649 161.292 76.6931 161.405C76.7253 161.514 76.7575 161.637 76.7897 161.774C76.826 161.91 76.8622 162.066 76.8985 162.239H76.9226C76.9468 161.985 76.969 161.765 76.9891 161.58C77.0092 161.395 77.0294 161.244 77.0495 161.127L77.2912 159.689H77.841L77.2429 163H76.7172L76.1614 161.2C76.1332 161.099 76.105 160.994 76.0768 160.885C76.0526 160.777 76.0285 160.634 76.0043 160.456H75.9801C75.964 160.573 75.9459 160.676 75.9258 160.765C75.9056 160.853 75.8855 160.932 75.8654 161C75.8452 161.069 75.8251 161.135 75.8049 161.2L75.2612 163H74.7356ZM75.0206 159.164V158.928L75.4616 158.735H77.5883V159.164H75.0206ZM76.2651 158.928V158.245H76.7122V158.928H76.2651ZM77.1472 158.928V158.245H77.5883V158.928H77.1472ZM76.6855 157.889V156.904H77.199V157.889H76.6855ZM79.752 163.06C79.317 163.06 78.9908 162.948 78.7733 162.722C78.5598 162.492 78.4531 162.134 78.4531 161.647C78.4531 161.566 78.4551 161.48 78.4591 161.387C78.4672 161.29 78.4752 161.196 78.4833 161.103H79.752V161.526H78.9908V161.647C78.9908 161.9 79.019 162.1 79.0754 162.245C79.1318 162.386 79.2143 162.484 79.3231 162.541C79.4359 162.597 79.5748 162.625 79.74 162.625C79.9212 162.625 80.0783 162.591 80.2112 162.523C80.3441 162.454 80.4468 162.329 80.5193 162.148C80.5918 161.967 80.6281 161.707 80.6281 161.369C80.6281 161.071 80.5959 160.827 80.5314 160.638C80.467 160.448 80.3602 160.307 80.2112 160.215C80.0662 160.122 79.8688 160.076 79.6191 160.076C79.4902 160.076 79.3654 160.088 79.2445 160.112C79.1237 160.132 79.0069 160.164 78.8941 160.209C78.7813 160.249 78.6706 160.301 78.5618 160.366V159.864C78.6424 159.82 78.7411 159.782 78.8579 159.75C78.9747 159.713 79.1036 159.685 79.2445 159.665C79.3855 159.641 79.5325 159.629 79.6856 159.629C80.04 159.629 80.326 159.701 80.5435 159.846C80.765 159.987 80.9261 160.189 81.0268 160.45C81.1275 160.708 81.1779 161.014 81.1779 161.369C81.1779 161.723 81.1315 162.027 81.0389 162.281C80.9463 162.535 80.7952 162.728 80.5858 162.861C80.3804 162.994 80.1025 163.06 79.752 163.06ZM83.1911 163.06C82.9534 163.06 82.748 163.02 82.5748 162.94C82.4056 162.855 82.2747 162.728 82.1821 162.559C82.0935 162.39 82.0492 162.17 82.0492 161.9V159.689H82.5869V161.87C82.5869 162.112 82.6473 162.295 82.7681 162.42C82.893 162.545 83.0722 162.607 83.3059 162.607C83.5878 162.607 83.8053 162.517 83.9584 162.335C84.1154 162.154 84.194 161.91 84.194 161.604V159.689H84.7317V163H84.2846L84.2604 162.511H84.2302C84.1577 162.672 84.0309 162.805 83.8496 162.909C83.6724 163.01 83.4529 163.06 83.1911 163.06ZM88.9639 158.606V163H88.4318V159.164H88.406L87.3333 159.876V159.336L88.4318 158.606H88.9639ZM90.7317 162.399L90.6974 162.631C90.6731 162.794 90.6359 162.969 90.5858 163.154C90.5372 163.34 90.4864 163.516 90.4335 163.68C90.3806 163.845 90.337 163.975 90.3026 164.073H89.9165C89.935 163.981 89.9594 163.86 89.9894 163.71C90.0194 163.56 90.0495 163.392 90.0795 163.206C90.111 163.021 90.1367 162.833 90.1567 162.64L90.1825 162.399H90.7317ZM92.6809 158.606V163H92.1488V159.164H92.1231L91.0503 159.876V159.336L92.1488 158.606H92.6809ZM95.4035 163.06C95.2233 163.057 95.0431 163.023 94.8629 162.957C94.6826 162.891 94.5181 162.78 94.3694 162.625C94.2206 162.467 94.1012 162.255 94.0111 161.987C93.921 161.718 93.8759 161.381 93.8759 160.975C93.8759 160.586 93.9124 160.241 93.9854 159.941C94.0583 159.639 94.1641 159.385 94.3029 159.179C94.4416 158.972 94.609 158.814 94.8049 158.707C95.0023 158.6 95.2247 158.546 95.4722 158.546C95.7182 158.546 95.937 158.595 96.1287 158.694C96.3218 158.791 96.4791 158.927 96.6007 159.102C96.7223 159.276 96.8009 159.477 96.8367 159.705H96.3132C96.2646 159.507 96.1702 159.343 96.03 159.213C95.8898 159.083 95.7039 159.018 95.4722 159.018C95.1318 159.018 94.8636 159.166 94.6676 159.462C94.4731 159.758 94.3751 160.174 94.3737 160.709H94.408C94.4881 160.587 94.5832 160.483 94.6934 160.398C94.8049 160.31 94.9279 160.243 95.0624 160.196C95.1968 160.149 95.3391 160.125 95.4893 160.125C95.7411 160.125 95.9713 160.188 96.1802 160.314C96.389 160.438 96.5563 160.611 96.6822 160.831C96.8081 161.05 96.871 161.301 96.871 161.584C96.871 161.856 96.8102 162.105 96.6887 162.331C96.5671 162.555 96.3962 162.734 96.1759 162.867C95.957 162.999 95.6996 163.063 95.4035 163.06ZM95.4035 162.588C95.5837 162.588 95.7454 162.543 95.8884 162.453C96.0329 162.363 96.1466 162.242 96.2295 162.09C96.3139 161.939 96.3561 161.77 96.3561 161.584C96.3561 161.402 96.3153 161.237 96.2338 161.088C96.1537 160.938 96.0429 160.819 95.9013 160.73C95.7611 160.641 95.6009 160.597 95.4207 160.597C95.2848 160.597 95.1582 160.624 95.0409 160.679C94.9236 160.732 94.8207 160.804 94.732 160.897C94.6447 160.99 94.5761 161.097 94.526 161.217C94.476 161.336 94.4509 161.461 94.4509 161.593C94.4509 161.767 94.4917 161.93 94.5732 162.082C94.6562 162.233 94.7692 162.356 94.9122 162.449C95.0567 162.542 95.2204 162.588 95.4035 162.588ZM97.7147 163V162.614L99.1651 161.026C99.3353 160.84 99.4755 160.679 99.5856 160.541C99.6957 160.403 99.7773 160.272 99.8302 160.151C99.8845 160.028 99.9117 159.899 99.9117 159.765C99.9117 159.61 99.8745 159.476 99.8001 159.363C99.7272 159.25 99.6271 159.163 99.4998 159.102C99.3725 159.04 99.2294 159.009 99.0707 159.009C98.9019 159.009 98.7546 159.044 98.6287 159.115C98.5043 159.183 98.4077 159.28 98.3391 159.404C98.2718 159.529 98.2382 159.675 98.2382 159.842H97.7319C97.7319 159.584 97.7913 159.358 97.91 159.164C98.0287 158.969 98.1903 158.818 98.3948 158.709C98.6008 158.6 98.8318 158.546 99.0878 158.546C99.3453 158.546 99.5734 158.6 99.7722 158.709C99.9711 158.818 100.127 158.964 100.24 159.149C100.353 159.333 100.409 159.539 100.409 159.765C100.409 159.926 100.38 160.084 100.321 160.239C100.264 160.392 100.164 160.563 100.021 160.752C99.8795 160.939 99.6828 161.168 99.4311 161.438L98.4442 162.494V162.528H100.487V163H97.7147Z" fill="#B4B4B4"/>
<path d="M50.7965 180.067C50.7965 178.373 52.1698 177 53.8638 177C55.5579 177 56.9311 178.373 56.9311 180.067C56.9311 181.761 55.5579 183.135 53.8638 183.135C52.1698 183.135 50.7965 181.761 50.7965 180.067Z" fill="#383838"/>
<path d="M48.5658 189.548C48.5658 186.622 50.9378 184.25 53.8638 184.25C56.7899 184.25 59.1619 186.622 59.1619 189.548V189.55C59.1619 189.58 59.1616 189.609 59.1612 189.639C59.1579 189.831 59.0559 190.008 58.8912 190.107C57.4224 190.991 55.7017 191.5 53.8638 191.5C52.026 191.5 50.3052 190.991 48.8365 190.107C48.6718 190.008 48.5698 189.831 48.5665 189.639C48.566 189.609 48.5658 189.578 48.5658 189.548Z" fill="#383838"/>
<path d="M60.835 180.904C60.835 180.596 60.5853 180.346 60.2773 180.346C59.9693 180.346 59.7196 180.596 59.7196 180.904V182.577H58.0465C57.7385 182.577 57.4888 182.827 57.4888 183.135C57.4888 183.443 57.7385 183.692 58.0465 183.692H59.7196V185.365C59.7196 185.673 59.9693 185.923 60.2773 185.923C60.5853 185.923 60.835 185.673 60.835 185.365V183.692H62.5081C62.8161 183.692 63.0658 183.443 63.0658 183.135C63.0658 182.827 62.8161 182.577 62.5081 182.577H60.835V180.904Z" fill="#383838"/>
<path d="M53.0835 198.072H53.5127V201.545H53.0835V198.072ZM51.8694 198.072H52.2986V201.545H51.8694V198.072ZM54.7795 198.072H55.2086V198.569C55.2086 198.902 54.7908 199.015 54.7908 199.365V200.585C54.7908 200.969 55.0336 201.223 55.4797 201.223C55.9258 201.223 56.1686 200.969 56.1686 200.585V199.913C56.1686 199.693 56.0387 199.563 55.8298 199.563H55.5192V199.201H55.8298C56.0387 199.201 56.1686 199.049 56.1686 198.846V198.072H56.5977V198.817C56.5977 199.151 56.4453 199.309 56.3154 199.382C56.4453 199.461 56.5977 199.619 56.5977 199.947V200.585C56.5977 201.2 56.1686 201.59 55.4797 201.59C54.7908 201.59 54.3616 201.2 54.3616 200.585V199.297C54.3616 198.925 54.7795 198.806 54.7795 198.507V198.072ZM59.0538 198.027C59.5282 198.027 59.7879 198.27 59.7879 198.688V201.545H59.3587V198.863C59.3587 198.58 59.2063 198.388 58.8562 198.388C58.3818 198.388 58.0487 198.721 57.8793 198.936V201.545H57.4501V198.072H57.7946L57.8623 198.586C58.1051 198.309 58.4891 198.027 59.0538 198.027Z" fill="#101010"/>
<rect width="12.1795" height="15.1261" rx="1.57155" transform="matrix(1 0 0 -1 111.232 192.126)" fill="#383838"/>
<rect width="6.69872" height="0.913462" rx="0.456731" transform="matrix(1 0 0 -1 113.973 187.76)" fill="white"/>
<rect width="6.69872" height="0.913462" rx="0.456731" transform="matrix(1 0 0 -1 113.973 185.02)" fill="white"/>
<rect width="6.69872" height="0.913462" rx="0.456731" transform="matrix(1 0 0 -1 113.973 182.279)" fill="white"/>
<path d="M111.448 197.394H113.221V197.755H111.889V197.862C111.889 198.32 112.538 198.32 112.538 198.901V201.663C112.538 201.787 112.6 201.838 112.713 201.838H112.877V202.205H112.589C112.289 202.205 112.109 202.052 112.109 201.748V198.901C112.109 198.455 111.448 198.376 111.448 197.942V197.394ZM113.033 198.698H113.457L114.01 201.499L114.597 198.698H114.908L115.49 201.499L116.037 198.698H116.461L115.755 202.171H115.32L114.75 199.5L114.18 202.171H113.739L113.033 198.698ZM119.036 198.433H119.386C119.386 198.743 119.233 198.93 119.07 199.037C119.188 199.195 119.262 199.393 119.262 199.641V202.171H118.832V200.692H117.839C117.488 200.692 117.257 200.884 117.257 201.245C117.257 201.606 117.488 201.81 117.839 201.81H118.081V202.171H117.743C117.184 202.171 116.828 201.81 116.828 201.245C116.828 200.68 117.184 200.324 117.743 200.324H118.832V199.641C118.832 199.201 118.511 199.014 118.093 199.014C117.675 199.014 117.353 199.201 117.353 199.641V199.726H116.924V199.641C116.924 198.981 117.432 198.653 118.093 198.653C118.398 198.653 118.663 198.721 118.872 198.862C118.957 198.783 119.036 198.653 119.036 198.433ZM120.795 199.077C120.62 199.206 120.451 199.557 120.451 200.415C120.451 201.426 120.761 201.815 121.224 201.815H121.371V202.177H121.151C120.473 202.177 120.021 201.668 120.021 200.415C120.021 199.093 120.462 198.653 120.846 198.653L121.422 199.257L121.992 198.653C122.444 198.653 122.726 198.952 122.726 199.432V202.171H122.297V199.511C122.297 199.252 122.195 199.116 122.066 199.054L121.569 199.59H121.286L120.795 199.077ZM121.96 197.275H123.01V197.608H122.208C122.112 197.608 122.067 197.659 122.067 197.75V198.122H121.638V197.597C121.638 197.405 121.756 197.275 121.96 197.275Z" fill="#101010"/>
</g>
<defs>
<filter id="filter0_d_19_784" x="57.069" y="71" width="73" height="73" filterUnits="userSpaceOnUse" color-interpolation-filters="sRGB">
<feFlood flood-opacity="0" result="BackgroundImageFix"/>
<feColorMatrix in="SourceAlpha" type="matrix" values="0 0 0 0 0 0 0 0 0 0 0 0 0 0 0 0 0 0 127 0" result="hardAlpha"/>
<feOffset dx="4" dy="4"/>
<feGaussianBlur stdDeviation="6"/>
<feComposite in2="hardAlpha" operator="out"/>
<feColorMatrix type="matrix" values="0 0 0 0 0 0 0 0 0 0 0 0 0 0 0 0 0 0 0.12 0"/>
<feBlend mode="normal" in2="BackgroundImageFix" result="effect1_dropShadow_19_784"/>
<feBlend mode="normal" in="SourceGraphic" in2="effect1_dropShadow_19_784" result="shape"/>
</filter>
<clipPath id="clip0_19_784">
<rect x="0.0689697" width="173.069" height="252" rx="13" fill="white"/>
</clipPath>
<clipPath id="clip1_19_784">
<rect width="5.88813" height="5.88813" fill="white" transform="translate(146.216 3.36462)"/>
</clipPath>
<clipPath id="clip2_19_784">
<rect width="5.88813" height="5.88813" fill="white" transform="translate(152.946 3.36469)"/>
</clipPath>
<clipPath id="clip3_19_784">
<rect width="5.88813" height="5.88813" fill="white" transform="translate(159.675 3.36469)"/>
</clipPath>
</defs>
</svg>
