<svg width="549" height="505" viewBox="0 0 549 505" fill="none" xmlns="http://www.w3.org/2000/svg">
<path d="M36.7461 74.0826C33.6109 66.9788 36.8279 58.6788 43.9317 55.5436C51.0355 52.4085 59.3355 55.6276 62.4707 62.7293C65.6058 69.8331 62.3889 78.1331 55.285 81.2683C48.1812 84.4034 39.8812 81.1865 36.7461 74.0826Z" fill="white" stroke="#080E17" stroke-width="4.42194" stroke-miterlimit="10" stroke-linecap="round" stroke-linejoin="round"/>
<path d="M55.285 81.2683C55.285 81.2683 62.9305 110.855 79.5172 133.343C96.1039 155.829 123.405 174.64 123.405 174.64" stroke="#080E17" stroke-width="4.42194" stroke-miterlimit="10" stroke-linecap="round" stroke-linejoin="round"/>
<path d="M524.634 74.0826C527.769 66.9788 524.552 58.6788 517.448 55.5436C510.344 52.4085 502.044 55.6276 498.909 62.7293C495.774 69.8331 498.993 78.1331 506.095 81.2683C513.199 84.4034 521.499 81.1865 524.634 74.0826Z" fill="white" stroke="#080E17" stroke-width="4.42194" stroke-miterlimit="10" stroke-linecap="round" stroke-linejoin="round"/>
<path d="M506.095 81.2683C506.095 81.2683 498.449 110.855 481.863 133.343C465.276 155.829 437.975 174.64 437.975 174.64" stroke="#080E17" stroke-width="4.42194" stroke-miterlimit="10" stroke-linecap="round" stroke-linejoin="round"/>
<path d="M214.077 378.201L144.232 497.297" stroke="#080E17" stroke-width="4.42194" stroke-miterlimit="10" stroke-linecap="round" stroke-linejoin="round"/>
<path d="M151.473 484.951L144.232 497.297C144.232 497.297 114.037 488.279 113.007 481.708C111.974 475.137 151.473 484.951 151.473 484.951Z" fill="white" stroke="#080E17" stroke-width="4.42194" stroke-miterlimit="10" stroke-linecap="round" stroke-linejoin="round"/>
<path d="M393.22 371.173L437.345 502" stroke="#080E17" stroke-width="4.42194" stroke-miterlimit="10" stroke-linecap="round" stroke-linejoin="round"/>
<path d="M432.77 488.438L437.345 502C437.345 502 468.743 499.32 471.091 493.096C473.439 486.873 432.77 488.438 432.77 488.438Z" fill="white" stroke="#080E17" stroke-width="4.42194" stroke-miterlimit="10" stroke-linecap="round" stroke-linejoin="round"/>
<path d="M157.474 418.207C257.418 425.392 357.365 423.882 457.31 413.676C445.837 290.775 445.837 167.874 457.31 44.973C357.365 34.7694 257.418 33.2571 157.474 40.4427C165.55 166.362 165.55 292.283 157.474 418.207Z" fill="#FFD817" stroke="#080E17" stroke-width="4.42194" stroke-miterlimit="10" stroke-linecap="round" stroke-linejoin="round"/>
<path d="M105.392 413.674C122.753 415.447 140.113 416.957 157.474 418.204C165.55 292.283 165.55 166.36 157.474 40.4383C140.113 41.6853 122.753 43.1976 105.392 44.9686C116.865 167.872 116.865 290.773 105.392 413.674Z" fill="#DDA825" stroke="#080E17" stroke-width="4.42194" stroke-miterlimit="10" stroke-linecap="round" stroke-linejoin="round"/>
<path d="M109.575 97.1762C126.522 95.9049 143.472 94.8237 160.419 93.9283C159.599 76.099 158.617 58.2698 157.474 40.4405C140.113 41.6875 122.753 43.1998 105.392 44.9708C107.015 62.3733 108.41 79.7737 109.575 97.1762Z" fill="#EBAD2A" stroke="#080E17" stroke-width="4.42194" stroke-miterlimit="10" stroke-linecap="round" stroke-linejoin="round"/>
<path d="M105.392 413.674C122.753 415.447 140.113 416.957 157.474 418.204C158.617 400.375 159.599 382.546 160.419 364.714C143.472 363.819 126.522 362.738 109.575 361.467C108.41 378.871 107.015 396.274 105.392 413.674Z" fill="#EBAD2A" stroke="#080E17" stroke-width="4.42194" stroke-miterlimit="10" stroke-linecap="round" stroke-linejoin="round"/>
<path d="M201.346 218.762C271.197 218.565 341.048 218.625 410.899 218.945C422.295 218.976 431.559 209.195 431.736 197.103C432.26 160.607 433.675 124.11 435.981 87.6137C436.765 75.5219 427.897 64.896 416.029 64.0426C343.412 58.9397 270.795 57.9624 198.18 61.1153C186.311 61.6415 177.2 72.2188 177.735 84.5803C179.281 121.859 180.229 159.136 180.578 196.415C180.7 208.777 189.953 218.782 201.346 218.762Z" fill="#FFF6C9" stroke="#080E17" stroke-width="4.42194" stroke-miterlimit="10" stroke-linecap="round" stroke-linejoin="round"/>
<path d="M189.066 259.521C267.122 260.253 345.178 260.056 423.234 258.933C427.911 258.862 431.643 254.778 431.599 249.815C431.552 244.849 427.749 240.849 423.08 240.871C345.108 241.309 267.138 241.387 189.168 241.101C184.498 241.086 180.702 245.185 180.671 250.255C180.64 255.325 184.39 259.475 189.066 259.521Z" fill="#FFF6C9" stroke="#080E17" stroke-width="4.42194" stroke-miterlimit="10" stroke-linecap="round" stroke-linejoin="round"/>
<path d="M188.609 295.841C267.052 297.448 345.494 297.017 423.94 294.543C428.64 294.39 432.328 290.236 432.202 285.272C432.076 280.308 428.198 276.375 423.515 276.479C345.304 278.268 267.094 278.579 188.883 277.417C184.2 277.35 180.348 281.398 180.264 286.47C180.183 291.542 183.908 295.741 188.609 295.841Z" fill="#FFF6C9" stroke="#080E17" stroke-width="4.42194" stroke-miterlimit="10" stroke-linecap="round" stroke-linejoin="round"/>
<path d="M130.664 346.808C127.909 346.646 125.152 346.481 122.397 346.31C126.606 268.971 126.642 191.631 122.503 114.291C125.256 114.125 128.01 113.962 130.763 113.803C134.688 191.472 134.652 269.141 130.664 346.808Z" fill="white" stroke="#080E17" stroke-width="4.42194" stroke-miterlimit="10" stroke-linecap="round" stroke-linejoin="round"/>
<path d="M147.947 347.763C145.192 347.621 142.435 347.473 139.68 347.321C143.432 269.313 143.463 191.306 139.775 113.301C142.528 113.15 145.283 113.007 148.035 112.865C151.511 191.164 151.48 269.464 147.947 347.763Z" fill="white" stroke="#080E17" stroke-width="4.42194" stroke-miterlimit="10" stroke-linecap="round" stroke-linejoin="round"/>
<path d="M359.45 146.66C352.095 146.66 346.133 140.698 346.133 133.343C346.133 125.989 352.095 120.027 359.45 120.027C366.805 120.027 372.767 125.989 372.767 133.343C372.767 140.698 366.805 146.66 359.45 146.66Z" fill="#080E17" stroke="#080E17" stroke-width="4.42194" stroke-miterlimit="10"/>
<path d="M258.424 146.66C251.07 146.66 245.108 140.698 245.108 133.343C245.108 125.989 251.07 120.027 258.424 120.027C265.779 120.027 271.741 125.989 271.741 133.343C271.741 140.698 265.779 146.66 258.424 146.66Z" fill="#080E17" stroke="#080E17" stroke-width="4.42194" stroke-miterlimit="10"/>
<path d="M396.588 158.219C390.982 158.219 386.437 153.674 386.437 148.068C386.437 142.462 390.982 137.918 396.588 137.918C402.194 137.918 406.738 142.462 406.738 148.068C406.738 153.674 402.194 158.219 396.588 158.219Z" fill="#FFBA11" stroke="#080E17" stroke-width="4.42194" stroke-miterlimit="10" stroke-linecap="round"/>
<path d="M211.136 146.66C211.136 152.267 215.682 156.81 221.287 156.81C226.894 156.81 231.437 152.265 231.437 146.66C231.437 141.053 226.891 136.509 221.287 136.509C215.682 136.509 211.136 141.055 211.136 146.66Z" fill="#FFBA11" stroke="#080E17" stroke-width="4.42194" stroke-miterlimit="10" stroke-linecap="round"/>
<path d="M383.185 110.157C379.63 105.133 374.275 101.538 368.466 99.5088C362.658 97.4791 356.406 96.9397 350.261 97.2647" stroke="#080E17" stroke-width="4.42194" stroke-miterlimit="10" stroke-linecap="round"/>
<path d="M234.687 110.157C238.243 105.133 243.598 101.538 249.406 99.5088C255.214 97.4791 261.467 96.9397 267.611 97.2647" stroke="#080E17" stroke-width="4.42194" stroke-miterlimit="10" stroke-linecap="round"/>
<path d="M310.864 143.792C310.864 143.792 324.417 134.69 331.214 140.222C338.01 145.753 326.319 166.125 309.701 166.074C293.083 166.026 281.334 150.969 285.878 142.216C290.421 133.46 310.864 143.792 310.864 143.792Z" fill="#080E17"/>
<mask id="mask0_1_588" style="mask-type:luminance" maskUnits="userSpaceOnUse" x="284" y="138" width="50" height="29">
<path d="M310.864 143.792C310.864 143.792 324.417 134.69 331.214 140.222C338.01 145.753 326.319 166.125 309.701 166.074C293.083 166.026 281.334 150.969 285.878 142.216C290.421 133.46 310.864 143.792 310.864 143.792Z" fill="white"/>
</mask>
<g mask="url(#mask0_1_588)">
<path d="M320.878 168.517C316.781 160.176 309.018 153.715 300.07 151.203C291.122 148.692 281.131 150.166 273.291 155.157C275.252 160.529 280.282 165.813 284.974 169.088C289.787 172.449 295.071 175.385 300.87 176.293C306.668 177.202 316.847 172.787 320.878 168.517Z" fill="#FF5900" stroke="#080E17" stroke-width="4.42194" stroke-miterlimit="10" stroke-linecap="round" stroke-linejoin="round"/>
</g>
<path d="M310.864 143.792C310.864 143.792 324.417 134.69 331.214 140.222C338.01 145.753 326.319 166.125 309.701 166.074C293.083 166.026 281.334 150.969 285.878 142.216C290.421 133.46 310.864 143.792 310.864 143.792Z" stroke="#080E17" stroke-width="4.42194" stroke-miterlimit="10" stroke-linecap="round" stroke-linejoin="round"/>
<path d="M47.0867 184.642C72.6632 184.644 95.9447 168.272 109.131 149.758C124.906 127.608 130.874 101.059 135.636 75.7652L135.926 74.222C138.165 62.2938 140.281 51.0245 145.424 41.4819C149.49 33.9337 157.284 25.563 166.959 24.7073C170.868 24.3668 176.351 26.6707 180.3 30.321C183.052 32.8636 184.746 35.8152 184.724 38.0195L206.398 38.2318C206.48 29.7329 202.436 21.2715 195.014 14.4064C186.528 6.55969 175.044 2.22399 165.051 3.11943C149.547 4.49023 135.077 14.9879 126.341 31.2032C119.6 43.7128 117.071 57.1909 114.623 70.2245L114.336 71.7567C110.02 94.6822 104.7 118.618 91.4763 137.186C80.5895 152.47 59.4328 166.771 38.7249 162.028L43.62 174.642L33.8939 183.159C38.3314 184.169 42.7444 184.642 47.0867 184.642Z" fill="#FF5900" stroke="#080E17" stroke-width="4.42194" stroke-miterlimit="10"/>
<path d="M525.839 159.475H525.832C525.832 148.241 516.725 139.132 505.489 139.132V139.125C516.723 139.125 525.832 130.018 525.832 118.782H525.839C525.839 130.016 534.946 139.125 546.182 139.125V139.132C534.946 139.132 525.839 148.241 525.839 159.475Z" fill="#EBAD2A" stroke="#080036" stroke-width="4.42194" stroke-miterlimit="10" stroke-linecap="round" stroke-linejoin="round"/>
<path d="M481.396 48.19H481.389C481.389 36.956 472.282 27.8469 461.046 27.8469V27.8402C472.282 27.8402 481.389 18.7332 481.389 7.4971H481.396C481.396 18.731 490.503 27.8402 501.739 27.8402V27.8469C490.505 27.8469 481.396 36.9538 481.396 48.19Z" fill="#8F8BFD" stroke="#080036" stroke-width="4.42194" stroke-miterlimit="10" stroke-linecap="round" stroke-linejoin="round"/>
<path d="M23.3498 140.783H23.3432C23.3432 129.549 14.2362 120.44 3.00003 120.44V120.433C14.234 120.433 23.3432 111.326 23.3432 100.09H23.3498C23.3498 111.324 32.4568 120.433 43.6929 120.433V120.44C32.4568 120.44 23.3498 129.549 23.3498 140.783Z" fill="#8F8BFD" stroke="#080036" stroke-width="4.42194" stroke-miterlimit="10" stroke-linecap="round" stroke-linejoin="round"/>
<path d="M75.6348 43.6929H75.6281C75.6281 32.4589 66.5212 23.3498 55.285 23.3498V23.3431C66.519 23.3431 75.6281 14.2361 75.6281 3H75.6348C75.6348 14.2339 84.7418 23.3431 95.9779 23.3431V23.3498C84.7418 23.3498 75.6348 32.4589 75.6348 43.6929Z" fill="#EBAD2A" stroke="#080036" stroke-width="4.42194" stroke-miterlimit="10" stroke-linecap="round" stroke-linejoin="round"/>
</svg>
