<svg width="234" height="228" viewBox="0 0 234 228" fill="none" xmlns="http://www.w3.org/2000/svg">
<path d="M82.9432 175.747C50.2662 202.627 78.2632 222.679 78.2632 222.679" stroke="#080E17" stroke-width="2" stroke-miterlimit="10" stroke-linecap="round" stroke-linejoin="round"/>
<path d="M73.0672 217.579L78.2642 222.679C78.2642 222.679 62.0742 228.828 60.2522 226.434C58.4302 224.04 73.0672 217.579 73.0672 217.579Z" fill="white" stroke="#080E17" stroke-width="2" stroke-miterlimit="10" stroke-linecap="round" stroke-linejoin="round"/>
<path d="M124.401 175.747C157.078 202.627 129.081 222.679 129.081 222.679" stroke="#080E17" stroke-width="2" stroke-miterlimit="10" stroke-linecap="round" stroke-linejoin="round"/>
<path d="M134.277 217.579L129.08 222.679C129.08 222.679 145.27 228.828 147.092 226.434C148.914 224.04 134.277 217.579 134.277 217.579Z" fill="white" stroke="#080E17" stroke-width="2" stroke-miterlimit="10" stroke-linecap="round" stroke-linejoin="round"/>
<path d="M167.303 184.645C122.046 184.645 76.7902 184.645 31.5332 184.645C37.5732 129.287 37.5732 73.437 31.5332 18.079C76.7902 18.079 122.047 18.079 167.303 18.079C173.343 73.437 173.343 129.287 167.303 184.645Z" fill="#FFD817" stroke="#080E17" stroke-width="2" stroke-miterlimit="10"/>
<path d="M190.887 184.645C183.026 184.645 175.164 184.645 167.303 184.645C173.343 129.287 173.343 73.437 167.303 18.079C175.164 18.079 183.026 18.079 190.887 18.079C196.926 73.437 196.926 129.287 190.887 184.645Z" fill="#EBAD2A" stroke="#080E17" stroke-width="2" stroke-miterlimit="10" stroke-linecap="round" stroke-linejoin="round"/>
<path d="M193.089 41.621C185.228 41.621 177.367 41.621 169.505 41.621C168.892 33.765 168.158 25.918 167.303 18.079C175.164 18.079 183.026 18.079 190.887 18.079C191.742 25.917 192.476 33.766 193.089 41.621Z" fill="#EBAD2A" stroke="#080E17" stroke-width="2" stroke-miterlimit="10" stroke-linecap="round" stroke-linejoin="round"/>
<path d="M190.887 184.645C183.026 184.645 175.164 184.645 167.303 184.645C168.158 176.807 168.892 168.958 169.505 161.103C177.366 161.103 185.228 161.103 193.089 161.103C192.476 168.959 191.742 176.806 190.887 184.645Z" fill="#EBAD2A" stroke="#080E17" stroke-width="2" stroke-miterlimit="10" stroke-linecap="round" stroke-linejoin="round"/>
<path d="M153.809 96.758C120.558 96.758 87.3082 96.758 54.0582 96.758C48.6342 96.757 44.2192 92.354 44.1162 86.924C43.8082 70.57 42.9782 54.222 41.6252 37.908C41.1772 32.488 45.1442 28.103 50.5692 28.103C83.8192 28.103 117.07 28.103 150.32 28.103C155.742 28.102 160.568 32.491 161.016 37.908C162.369 54.223 163.199 70.57 163.507 86.924C163.61 92.355 159.232 96.757 153.809 96.758Z" fill="#FFF6C9" stroke="#080E17" stroke-width="2" stroke-miterlimit="10" stroke-linecap="round" stroke-linejoin="round"/>
<path d="M159.505 114.575C122.391 114.575 85.2772 114.575 48.1622 114.575C45.9392 114.574 44.1702 112.772 44.1962 110.545C44.2222 108.319 46.0352 106.515 48.2582 106.515C85.3722 106.515 122.487 106.515 159.601 106.515C161.823 106.515 163.615 108.32 163.588 110.545C163.562 112.771 161.727 114.577 159.505 114.575Z" fill="#FFF6C9" stroke="#080E17" stroke-width="2" stroke-miterlimit="10" stroke-linecap="round" stroke-linejoin="round"/>
<path d="M159.067 130.463C121.953 130.463 84.8382 130.463 47.7242 130.463C45.5012 130.463 43.7692 128.66 43.8422 126.435C43.9142 124.21 45.7652 122.405 47.9872 122.406C85.1012 122.406 122.215 122.406 159.33 122.406C161.553 122.406 163.306 124.211 163.233 126.435C163.161 128.659 161.29 130.464 159.067 130.463Z" fill="#FFF6C9" stroke="#080E17" stroke-width="2" stroke-miterlimit="10" stroke-linecap="round" stroke-linejoin="round"/>
<path d="M184.244 153.918C185.53 153.918 186.815 153.918 188.101 153.918C190.482 119.215 190.502 84.3899 188.161 49.6849C186.875 49.6849 185.59 49.6849 184.304 49.6849C186.644 84.3899 186.624 119.215 184.244 153.918Z" fill="white" stroke="#080E17" stroke-width="2" stroke-miterlimit="10" stroke-linecap="round" stroke-linejoin="round"/>
<path d="M176.179 153.918C177.465 153.918 178.75 153.918 180.036 153.918C182.417 119.215 182.437 84.3899 180.096 49.6849C178.81 49.6849 177.525 49.6849 176.239 49.6849C178.58 84.3899 178.56 119.215 176.179 153.918Z" fill="white" stroke="#080E17" stroke-width="2" stroke-miterlimit="10" stroke-linecap="round" stroke-linejoin="round"/>
<path d="M38.6803 70.204C38.9623 66.769 36.4073 63.7551 32.9713 63.4731C29.5363 63.1911 26.5223 65.7461 26.2403 69.1821C25.9583 72.6171 28.5133 75.631 31.9493 75.913C35.3843 76.195 38.3973 73.64 38.6803 70.204Z" fill="white" stroke="#080E17" stroke-width="2" stroke-miterlimit="10" stroke-linecap="round" stroke-linejoin="round"/>
<path d="M26.2403 69.182C26.2403 69.182 1.11126 77.058 1.00026 91.698C0.889263 106.338 35.9543 114.214 35.9543 114.214" stroke="#080E17" stroke-width="2" stroke-miterlimit="10" stroke-linecap="round" stroke-linejoin="round"/>
<path d="M154.758 200.235C154.765 203.747 157.617 206.588 161.129 206.581C164.641 206.574 167.482 203.722 167.475 200.21C167.468 196.698 164.616 193.857 161.104 193.864C157.593 193.871 154.751 196.723 154.758 200.235Z" fill="white" stroke="#080E17" stroke-width="2" stroke-miterlimit="10" stroke-linecap="round" stroke-linejoin="round"/>
<path d="M161.104 193.864L160.967 140.962" stroke="#080E17" stroke-width="2" stroke-miterlimit="10" stroke-linecap="round" stroke-linejoin="round"/>
<path d="M228.752 20.267C231.452 22.558 232.799 25.829 232.799 30.078C232.799 33.798 231.564 36.743 229.089 38.909C226.616 41.077 223.357 42.2 219.31 42.283L219.003 46.759H208.393L208.026 34.555H212.44C215.22 34.555 217.346 34.241 218.818 33.607C220.29 32.973 221.026 31.838 221.026 30.204C221.026 29.099 220.729 28.23 220.135 27.597C219.544 26.963 218.735 26.646 217.715 26.646C216.57 26.646 215.699 26.983 215.108 27.659C214.514 28.333 214.22 29.243 214.22 30.386H202.874C202.792 27.893 203.313 25.615 204.438 23.549C205.561 21.485 207.268 19.849 209.558 18.643C211.846 17.438 214.668 16.834 218.022 16.834C222.476 16.833 226.055 17.979 228.752 20.267ZM208.671 61.996C207.383 60.831 206.74 59.351 206.74 57.55C206.74 55.753 207.384 54.261 208.671 53.074C209.959 51.889 211.665 51.297 213.791 51.297C215.874 51.297 217.561 51.888 218.849 53.074C220.137 54.262 220.78 55.754 220.78 57.55C220.78 59.309 220.136 60.781 218.849 61.967C217.561 63.152 215.875 63.746 213.791 63.746C211.665 63.746 209.958 63.162 208.671 61.996Z" fill="#FFD817" stroke="#080E17" stroke-width="2" stroke-miterlimit="10"/>
<path d="M77.0502 71.006C80.3766 71.006 83.0732 68.3094 83.0732 64.983C83.0732 61.6565 80.3766 58.96 77.0502 58.96C73.7238 58.96 71.0272 61.6565 71.0272 64.983C71.0272 68.3094 73.7238 71.006 77.0502 71.006Z" fill="#080E17" stroke="#080E17" stroke-width="2" stroke-miterlimit="10"/>
<path d="M122.742 71.006C126.069 71.006 128.765 68.3094 128.765 64.983C128.765 61.6565 126.069 58.96 122.742 58.96C119.416 58.96 116.719 61.6565 116.719 64.983C116.719 68.3094 119.416 71.006 122.742 71.006Z" fill="#080E17" stroke="#080E17" stroke-width="2" stroke-miterlimit="10"/>
<path d="M64.8442 71.643C64.8442 74.179 62.7882 76.234 60.2532 76.234C57.7172 76.234 55.6622 74.178 55.6622 71.643C55.6622 69.107 57.7182 67.052 60.2532 67.052C62.7882 67.052 64.8442 69.107 64.8442 71.643Z" fill="#FF5900" stroke="#080E17" stroke-width="2" stroke-miterlimit="10" stroke-linecap="round"/>
<path d="M139.539 75.597C142.075 75.597 144.13 73.5416 144.13 71.006C144.13 68.4705 142.075 66.415 139.539 66.415C137.004 66.415 134.948 68.4705 134.948 71.006C134.948 73.5416 137.004 75.597 139.539 75.597Z" fill="#FF5900" stroke="#080E17" stroke-width="2" stroke-miterlimit="10" stroke-linecap="round"/>
<path d="M81.2052 48.625C79.5972 50.897 77.1752 52.523 74.5482 53.441C71.9212 54.36 69.0932 54.602 66.3142 54.456" stroke="#080E17" stroke-width="2" stroke-miterlimit="10" stroke-linecap="round"/>
<path d="M118.587 48.625C120.195 50.897 122.617 52.523 125.244 53.441C127.871 54.36 130.699 54.602 133.478 54.456" stroke="#080E17" stroke-width="2" stroke-miterlimit="10" stroke-linecap="round"/>
<path d="M88.6313 75.598C89.1903 79.987 109.99 79.455 112.517 76.234C115.045 73.013 106.072 71.006 100.574 71.006C95.0773 71.006 88.2523 72.621 88.6313 75.598Z" fill="#080E17"/>
<mask id="mask0_51_1500" style="mask-type:luminance" maskUnits="userSpaceOnUse" x="88" y="71" width="25" height="8">
<path d="M88.6313 75.598C89.1903 79.987 109.99 79.455 112.517 76.234C115.045 73.013 106.072 71.006 100.574 71.006C95.0773 71.006 88.2523 72.621 88.6313 75.598Z" fill="white"/>
</mask>
<g mask="url(#mask0_51_1500)">
<path d="M94.9963 81.265C98.5883 76.675 104.107 73.643 109.908 73.075C112.355 72.835 114.891 73.029 117.14 74.022C117.369 74.123 117.61 74.246 117.724 74.469C117.825 74.665 117.806 74.9 117.781 75.119C117.59 76.783 117.136 78.484 116.044 79.755C115.08 80.878 113.71 81.564 112.343 82.131C109.949 83.124 107.441 83.842 104.885 84.268C102.36 84.689 99.5463 84.758 97.4893 83.235" fill="#FF5900"/>
<path d="M94.9963 81.265C98.5883 76.675 104.107 73.643 109.908 73.075C112.355 72.835 114.891 73.029 117.14 74.022C117.369 74.123 117.61 74.246 117.724 74.469C117.825 74.665 117.806 74.9 117.781 75.119C117.59 76.783 117.136 78.484 116.044 79.755C115.08 80.878 113.71 81.564 112.343 82.131C109.949 83.124 107.441 83.842 104.885 84.268C102.36 84.689 99.5463 84.758 97.4893 83.235" stroke="#080E17" stroke-width="2" stroke-miterlimit="10" stroke-linecap="round"/>
</g>
<path d="M88.6313 75.598C89.1903 79.987 109.99 79.455 112.517 76.234C115.045 73.013 106.072 71.006 100.574 71.006C95.0773 71.006 88.2523 72.621 88.6313 75.598Z" stroke="#080E17" stroke-width="2" stroke-miterlimit="10" stroke-linecap="round"/>
<path d="M77.2572 74.933C79.8952 74.866 82.4372 73.246 83.6112 70.882" stroke="#080E17" stroke-width="2" stroke-miterlimit="10"/>
<path d="M115.482 71.219C116.572 73.794 119.33 75.564 122.124 75.484" stroke="#080E17" stroke-width="2" stroke-miterlimit="10"/>
<path d="M210.281 95.771C207.448 95.771 204.658 95.433 201.958 94.752C194.511 92.875 188.007 88.3 184.112 82.2C181.218 77.669 179.884 72.553 179.045 68.602C177.803 62.759 177.117 56.838 176.454 51.111C175.839 45.802 175.258 40.788 174.27 35.79C172.747 28.083 170.545 22.545 167.34 18.361C163.643 13.535 158.261 10.637 153.349 10.798C148.333 10.96 144.302 13.366 142.583 18.08H131.952C135.036 9.62601 142.49 0.98901 153.031 1.00001C161.2 1.00801 169.451 4.99601 175.122 12.4C179.276 17.823 182.061 24.652 183.887 33.89C184.951 39.271 185.581 44.717 186.191 49.984C186.857 55.738 187.487 61.173 188.633 66.565C189.3 69.706 190.328 73.722 192.374 76.925C194.939 80.941 199.305 83.974 204.354 85.247C209.15 86.456 214.656 86.104 219.856 84.257L218.251 89.772L223.138 93.495C218.875 95.008 214.531 95.771 210.281 95.771Z" fill="#FF5900" stroke="#080E17" stroke-width="2" stroke-miterlimit="10"/>
</svg>
