<svg width="52" height="52" viewBox="0 0 52 52" fill="none" xmlns="http://www.w3.org/2000/svg">
<path fill-rule="evenodd" clip-rule="evenodd" d="M27.1174 4.70124C26.4907 4.10772 25.5093 4.10772 24.8826 4.70124C20.513 8.83951 14.6169 11.3752 8.125 11.3752C8.02171 11.3752 7.91859 11.3746 7.81562 11.3733C7.10633 11.3645 6.47328 11.8168 6.25173 12.4906C5.35789 15.2093 4.875 18.1125 4.875 21.1253C4.875 33.9997 13.6805 44.8133 25.595 47.8799C25.8607 47.9483 26.1393 47.9483 26.405 47.8799C38.3195 44.8133 47.125 33.9997 47.125 21.1253C47.125 18.1125 46.6421 15.2093 45.7483 12.4906C45.5267 11.8168 44.8937 11.3645 44.1844 11.3733C44.0814 11.3746 43.9783 11.3752 43.875 11.3752C37.3831 11.3752 31.487 8.83951 27.1174 4.70124Z" fill="#34C432"/>
<path d="M23.9393 19.7133C24.5879 17.7171 27.4119 17.7171 28.0605 19.7133L28.3488 20.6003C28.6388 21.4931 29.4707 22.0975 30.4094 22.0975H31.3421C33.441 22.0975 34.3137 24.7833 32.6156 26.017L31.861 26.5652C31.1017 27.117 30.7839 28.0949 31.074 28.9876L31.3622 29.8747C32.0108 31.8709 29.7261 33.5308 28.028 32.2971L27.2734 31.7489C26.5141 31.1971 25.4858 31.1971 24.7264 31.7489L23.9718 32.2971C22.2738 33.5308 19.989 31.8709 20.6376 29.8747L20.9259 28.9876C21.2159 28.0949 20.8982 27.117 20.1388 26.5652L19.3842 26.017C17.6862 24.7833 18.5588 22.0975 20.6577 22.0975H21.5904C22.5291 22.0975 23.361 21.4931 23.6511 20.6003L23.9393 19.7133Z" fill="white"/>
</svg>
